<svg width="276" height="176" viewBox="0 0 276 176" fill="none" xmlns="http://www.w3.org/2000/svg">
<g clip-path="url(#clip0)">
<path d="M103.919 17.5992C69.0005 21.2309 36.3162 46.0944 16.2029 73.4722C-0.278912 95.8214 -8.38013 127.669 12.5713 149.739C30.7292 168.736 61.4579 173.485 86.5996 175.44C111.741 177.396 136.883 175.161 161.466 170.412C203.09 162.59 280.191 142.196 275.721 86.6024C273.207 54.7547 245.83 24.5833 218.454 10.8944C185.49 -5.58811 147.219 -1.11827 113.138 9.21824C78.4984 19.5547 45.8142 37.7135 24.8628 67.8849C7.8223 92.1897 -4.74855 131.301 18.1583 155.885C38.551 177.675 75.4255 177.117 102.243 172.926C134.928 167.898 167.332 160.913 198.061 148.621C226.276 137.447 255.887 120.406 269.017 91.6309C278.515 71.2373 276.559 49.4468 258.122 35.4785C239.405 21.2309 212.308 18.1579 189.122 16.4817C163.98 14.8055 139.397 16.2024 114.535 20.9516C108.668 22.069 102.802 23.1865 96.6563 24.3039C94.1421 24.8627 95.2596 28.7738 97.7737 28.2151C114.256 25.142 130.737 21.5103 147.498 20.3928C159.231 19.8341 171.243 19.5547 182.976 20.1135C207.559 21.2309 235.774 24.3039 256.166 39.1103C280.749 56.9897 269.855 89.6754 253.094 108.672C230.187 134.933 193.312 147.504 160.628 156.444C129.62 164.825 94.9802 173.206 62.8547 170.133C47.211 168.736 31.0085 163.428 20.1138 151.694C7.54295 138.006 8.66036 118.45 13.4093 101.688C24.3041 61.1801 58.6644 34.0817 96.377 19.2754C132.693 5.02776 175.154 -2.79446 212.308 12.85C230.745 20.6722 245.83 34.6405 257.004 51.123C265.944 64.2532 272.648 79.3389 271.531 95.542C269.575 122.92 241.081 139.682 218.733 149.46C192.195 160.913 163.142 167.06 134.648 170.133C108.11 173.206 80.4539 172.367 54.4741 166.221C39.6685 162.59 25.1421 156.723 14.5268 145.828C2.79396 133.256 1.95591 115.656 6.70489 100.291C13.13 79.6182 29.3324 62.0182 45.8142 48.6087C62.0166 35.1992 82.6887 24.0246 103.919 21.7897C106.713 21.5103 106.713 17.3198 103.919 17.5992Z" fill="#F9E73C"/>
</g>
<defs>
<clipPath id="clip0">
<rect width="276" height="176" fill="white"/>
</clipPath>
</defs>
</svg>
