<svg width="46" height="48" viewBox="0 0 46 48" fill="none" xmlns="http://www.w3.org/2000/svg">
<path d="M15.4654 35.1072C13.3558 31.1604 10.1731 27.5471 7.13714 24.6402C5.71184 23.2781 3.67121 24.8075 4.03814 26.5738C5.36044 33.1162 10.0859 38.6568 15.7986 41.8551C17.5891 42.8465 19.6389 40.6519 18.5508 38.9618C17.5921 37.5396 16.5641 36.3161 15.4654 35.1072Z" fill="#F9E73C"/>
<path d="M18.8503 16.4584C18.2943 15.9106 17.5451 16.0294 17.0386 16.4294C16.356 15.9816 15.3004 16.7537 15.8164 17.6414C19.0316 23.7169 22.6133 29.6057 26.0537 35.5238C26.9138 37.0033 29.4531 35.9231 28.8183 34.2862C26.3963 28.3039 23.2583 21.1806 18.8503 16.4584Z" fill="#F9E73C"/>
<path d="M30.2809 6.38226C29.9075 5.64915 28.6945 6.19594 28.9693 6.98639C29.4027 8.18606 29.8362 9.38573 30.199 10.6001C29.9325 10.9134 29.7939 11.3107 30.0526 11.8465C30.9595 13.9059 31.5971 15.9107 32.0654 17.9875C32.7286 21.5347 33.2225 25.1539 33.6458 28.7877C33.8581 30.6966 36.5042 30.6628 36.6172 28.7231C37.0106 22.635 36.2521 15.7912 32.6479 10.6809C32.4479 10.4277 32.1919 10.2598 31.9506 10.1625C31.4318 8.90686 30.913 7.65122 30.2809 6.38226Z" fill="#F9E73C"/>
</svg>
