<svg width="35" height="40" viewBox="0 0 35 40" fill="none" xmlns="http://www.w3.org/2000/svg">
<g clip-path="url(#clip0)">
<path d="M1.45823 24.7272C5.83323 23.2726 9.47907 20.3635 13.1249 18.909C13.8541 18.909 13.8541 18.1817 13.8541 18.1817C14.5832 12.3635 14.5832 6.54536 14.5832 1.45445C13.8541 1.45445 13.1249 1.45445 12.3957 2.18172C13.8541 5.81809 15.3124 14.5454 18.2291 16.7272C21.8749 18.909 29.1666 18.1817 33.5416 18.909C33.5416 18.1817 33.5416 16.7272 33.5416 15.9999C29.1666 16.7272 25.5207 19.6363 21.1457 21.0908C20.4166 21.0908 20.4166 21.8181 20.4166 22.5454C21.1457 28.3635 20.4166 33.4544 21.1457 39.2726C21.8749 39.2726 22.6041 38.5454 23.3332 38.5454C21.1457 34.1817 20.4166 27.6363 17.4999 23.9999C13.1249 20.3635 5.83323 23.2726 1.45823 23.2726C-9.90108e-05 22.5454 -0.729266 25.4544 1.45823 24.7272C5.10407 25.4544 13.1249 23.2726 16.0416 26.909C18.2291 29.8181 19.6874 35.6363 21.1457 39.2726C21.8749 40.7272 23.3332 39.9999 23.3332 38.5454C23.3332 35.6363 21.8749 27.6363 23.3332 24.7272C24.7916 21.0908 30.6249 19.6363 33.5416 18.909C34.9999 18.1817 34.9999 15.9999 33.5416 15.9999C29.8957 15.2726 22.6041 15.9999 20.4166 13.8181C17.4999 11.6363 16.0416 4.36354 14.5832 0.727177C13.8541 -0.727368 12.3957 -9.57176e-05 12.3957 1.45445C12.3957 5.81809 13.1249 14.5454 10.9374 17.4544C8.7499 19.6363 2.91657 21.8181 0.729068 23.2726C-9.90108e-05 23.9999 0.729068 25.4544 1.45823 24.7272Z" fill="white"/>
</g>
<defs>
<clipPath id="clip0">
<rect width="35" height="40" fill="white"/>
</clipPath>
</defs>
</svg>
