<svg width="222" height="222" viewBox="0 0 222 222" fill="none" xmlns="http://www.w3.org/2000/svg">
<g clip-path="url(#clip0)">
<path d="M65.3756 5.81822C49.402 13.1174 45.3821 34.2745 45.6995 50.0365C46.0168 68.5489 56.1722 81.0316 72.04 86.9556C72.4632 89.9176 73.2037 92.7738 74.2615 95.7358C79.9739 111.18 94.4665 122.076 110.44 123.028C110.229 131.28 112.767 139.743 116.153 146.936C126.731 169.574 153.706 194.857 180.364 193.164C183.115 192.953 183.538 188.51 180.682 188.192C153.495 185.759 115.306 153.071 117.951 122.711C125.673 121.759 135.405 117.528 139.108 110.652C141.541 106.103 142.916 97.7457 136.675 95.1011C126.414 90.7639 117.845 101.448 113.719 109.594C112.767 111.604 111.921 113.719 111.392 115.941C101.766 116.047 92.9855 110.228 87.1673 103.141C83.4649 98.8036 81.1376 94.149 79.9739 89.3887C102.824 93.8316 128.212 70.5589 115.306 47.2861C109.488 36.8133 96.4765 41.9968 89.1773 47.3919C78.0698 55.7489 71.8285 67.2795 71.6169 79.7622C63.2598 75.425 56.3838 67.7027 53.845 59.0283C49.1904 43.372 52.9987 18.6182 67.0681 8.56864C68.2318 7.61657 67.0681 4.97194 65.3756 5.81822ZM128.529 102.823C134.242 102.823 135.3 104.728 131.386 108.43C128.741 111.709 124.298 113.614 119.855 114.671C120.384 113.296 120.913 111.921 121.653 110.546C123.346 107.584 125.567 104.939 128.529 102.823ZM93.3029 53.4216C101.343 46.8629 110.229 46.4398 110.969 58.3935C111.604 68.7605 104.516 78.387 94.9955 81.7721C89.7062 83.6763 84.0996 83.782 79.0219 82.5126C78.7045 71.8283 83.888 61.144 93.3029 53.4216Z" fill="#F9E73C"/>
<path d="M23.0612 69.0778C24.9653 72.8861 28.0331 76.1655 30.572 79.7622C33.3224 83.3589 35.6497 87.1671 38.0827 90.8696C39.0348 92.4564 41.4678 91.0812 40.8331 89.3886C37.6596 81.3489 32.7935 71.8283 25.7058 66.6448C24.0133 65.3753 22.2149 67.1737 23.0612 69.0778Z" fill="#F9E73C"/>
<path d="M13.5406 73.0976C18.1951 79.8679 22.3207 86.9555 25.8117 94.4663C26.3406 95.6299 27.8216 94.9952 27.5042 93.8316C25.6001 85.3687 22.5323 76.8001 16.291 70.5588C14.7042 69.1836 12.2711 71.4051 13.5406 73.0976Z" fill="#F9E73C"/>
</g>
<defs>
<clipPath id="clip0">
<rect width="97.3916" height="216.176" fill="white" transform="translate(0 68.8662) rotate(-45)"/>
</clipPath>
</defs>
</svg>
